<?xml version="1.0" standalone="no"?>
<!DOCTYPE svg PUBLIC "-//W3C//DTD SVG 20010904//EN"
 "http://www.w3.org/TR/2001/REC-SVG-20010904/DTD/svg10.dtd">
<svg version="1.0" xmlns="http://www.w3.org/2000/svg"
 width="390.000000pt" height="390.000000pt" viewBox="0 0 390.000000 390.000000"
 preserveAspectRatio="xMidYMid meet">
<metadata>
Created by potrace 1.14, written by Peter Selinger 2001-2017
</metadata>
<g transform="translate(0.000000,390.000000) scale(0.100000,-0.100000)"
fill="#000000" stroke="none">
<path d="M0 1950 l0 -1950 1950 0 1950 0 0 1950 0 1950 -1950 0 -1950 0 0
-1950z m2470 1305 c0 -23 4 -25 45 -25 38 0 45 -3 45 -20 0 -15 7 -20 25 -20
23 0 25 -3 25 -50 0 -43 3 -50 20 -50 18 0 20 -7 20 -70 0 -68 1 -70 25 -70
25 0 25 -1 25 -90 0 -89 0 -90 -25 -90 -20 0 -25 -5 -25 -25 0 -24 -2 -25 -70
-25 -68 0 -70 1 -70 25 0 18 -5 25 -20 25 -13 0 -20 7 -20 20 0 15 -7 20 -25
20 -20 0 -25 5 -25 25 0 20 -5 25 -25 25 -20 0 -25 5 -25 25 0 18 -5 25 -20
25 -13 0 -20 7 -20 20 0 19 -7 20 -95 20 l-95 0 0 -70 0 -70 45 0 c38 0 45 -3
45 -20 0 -18 7 -20 70 -20 68 0 70 -1 70 -25 0 -20 5 -25 25 -25 25 0 25 0 25
-95 0 -95 0 -95 -25 -95 -18 0 -25 -5 -25 -20 0 -18 -7 -20 -70 -20 -68 0 -70
-1 -70 -25 0 -23 -4 -25 -45 -25 l-45 0 0 -165 0 -165 25 0 c24 0 25 -2 25
-70 0 -63 2 -70 20 -70 17 0 20 -7 20 -45 0 -41 2 -45 25 -45 23 0 25 -4 25
-45 0 -41 2 -45 25 -45 23 0 25 -3 25 -50 0 -43 3 -50 20 -50 17 0 20 -7 20
-45 0 -41 2 -45 25 -45 23 0 25 -4 25 -45 0 -41 2 -45 25 -45 23 0 25 -3 25
-50 0 -43 3 -50 20 -50 17 0 20 -7 20 -45 0 -41 2 -45 25 -45 l25 0 0 -235 0
-235 -25 0 c-18 0 -25 -5 -25 -20 0 -13 -7 -20 -20 -20 -15 0 -20 -7 -20 -25
0 -20 -5 -25 -25 -25 -20 0 -25 -5 -25 -25 0 -23 -4 -25 -45 -25 -38 0 -45 -3
-45 -20 0 -19 -7 -20 -95 -20 -95 0 -95 0 -95 -25 l0 -25 -230 0 -230 0 0 25
c0 25 0 25 -95 25 -88 0 -95 1 -95 20 0 17 -7 20 -45 20 -41 0 -45 2 -45 25 0
23 -3 25 -50 25 -47 0 -50 2 -50 25 0 18 -5 25 -20 25 -19 0 -20 7 -20 115 l0
115 -25 0 c-24 0 -25 2 -25 70 0 68 1 70 25 70 l25 0 0 115 c0 108 1 115 20
115 18 0 20 7 20 70 0 68 1 70 25 70 23 0 25 3 25 50 0 47 2 50 25 50 24 0 25
2 25 70 0 63 2 70 20 70 17 0 20 7 20 45 0 41 2 45 25 45 23 0 25 4 25 45 0
41 2 45 25 45 24 0 25 2 25 70 0 63 2 70 20 70 18 0 20 7 20 70 0 68 1 70 25
70 l25 0 0 190 0 190 -25 0 c-25 0 -25 1 -25 90 0 83 -1 90 -20 90 -19 0 -20
7 -20 95 0 95 0 95 -25 95 -23 0 -25 4 -25 45 0 41 2 45 25 45 23 0 25 3 25
50 0 43 3 50 20 50 13 0 20 7 20 20 0 15 7 20 25 20 20 0 25 5 25 25 l0 25
420 0 420 0 0 -25z"/>
</g>
</svg>
